<svg width="30" height="30" viewBox="0 0 30 30" fill="none" xmlns="http://www.w3.org/2000/svg">
<path d="M21.5 25C22.125 25 22.6562 24.7812 23.0938 24.3437C23.5312 23.9062 23.75 23.375 23.75 22.75C23.75 22.3125 23.625 21.9012 23.375 21.5162C23.125 21.1312 22.7917 20.855 22.375 20.6875L17.5 18.75V15.9375C18.5 17.0833 19.625 17.995 20.875 18.6725C22.125 19.35 23.4792 19.7717 24.9375 19.9375C25.2917 19.9792 25.5987 19.8804 25.8588 19.6412C26.1188 19.4021 26.2492 19.105 26.25 18.75C26.25 18.3958 26.1354 18.0937 25.9062 17.8437C25.6771 17.5937 25.3854 17.4479 25.0313 17.4062C23.8854 17.2396 22.8333 16.8854 21.875 16.3437C20.9167 15.8021 20.0417 15.0625 19.25 14.125L17.5625 12.125C17.3125 11.8333 17.0208 11.6146 16.6875 11.4688C16.3542 11.3229 16 11.25 15.625 11.25H14.375C14 11.25 13.6458 11.3229 13.3125 11.4688C12.9792 11.6146 12.6875 11.8333 12.4375 12.125L10.75 14.125C9.95833 15.0625 9.08333 15.8021 8.125 16.3437C7.16667 16.8854 6.11459 17.2396 4.96875 17.4062C4.61459 17.4479 4.32292 17.5937 4.09375 17.8437C3.86458 18.0937 3.75 18.3958 3.75 18.75C3.75 19.1042 3.88042 19.4012 4.14125 19.6412C4.40208 19.8812 4.70917 19.98 5.0625 19.9375C6.52083 19.7708 7.875 19.3492 9.125 18.6725C10.375 17.9958 11.5 17.0842 12.5 15.9375V18.75L7.625 20.6875C7.20833 20.8542 6.875 21.1304 6.625 21.5162C6.375 21.9021 6.25 22.3133 6.25 22.75C6.25 23.375 6.46875 23.9062 6.90625 24.3437C7.34375 24.7812 7.875 25 8.5 25H17.5V24.375C17.5 23.8333 17.3229 23.3854 16.9688 23.0312C16.6146 22.6771 16.1667 22.5 15.625 22.5H11.875C11.6875 22.5 11.5363 22.4429 11.4213 22.3287C11.3063 22.2146 11.2492 22.0633 11.25 21.875C11.25 21.6875 11.3071 21.5362 11.4213 21.4212C11.5354 21.3062 11.6867 21.2492 11.875 21.25H15.625C16.5 21.25 17.2396 21.5521 17.8437 22.1562C18.4479 22.7604 18.75 23.5 18.75 24.375V25H21.5Z" fill="#2B8589"/>
<path fill-rule="evenodd" clip-rule="evenodd" d="M15 5.5C14.337 5.5 13.7011 5.76339 13.2322 6.23223C12.7634 6.70107 12.5 7.33696 12.5 8C12.5 8.66304 12.7634 9.29893 13.2322 9.76777C13.7011 10.2366 14.337 10.5 15 10.5C15.663 10.5 16.2989 10.2366 16.7678 9.76777C17.2366 9.29893 17.5 8.66304 17.5 8C17.5 7.33696 17.2366 6.70107 16.7678 6.23223C16.2989 5.76339 15.663 5.5 15 5.5ZM13.6939 8.43679C13.6939 8.41311 13.7033 8.3904 13.7201 8.37365C13.7368 8.35691 13.7595 8.3475 13.7832 8.3475H16.2054C16.229 8.3475 16.2517 8.35691 16.2685 8.37365C16.2852 8.3904 16.2946 8.41311 16.2946 8.43679C16.2946 8.63393 16.1982 8.91429 15.9904 9.145C15.7796 9.37929 15.4532 9.56393 14.9939 9.56393C14.5354 9.56393 14.2089 9.37929 13.9979 9.145C13.7904 8.91429 13.6943 8.63429 13.6943 8.43679H13.6939ZM14.1364 7.63429C14.0394 7.63419 13.9464 7.59555 13.8778 7.52687C13.8439 7.49286 13.817 7.45249 13.7986 7.40808C13.7803 7.36367 13.7708 7.31609 13.7709 7.26804C13.7709 7.21999 13.7805 7.17242 13.7989 7.12804C13.8173 7.08367 13.8443 7.04336 13.8783 7.00942C13.947 6.94086 14.0401 6.90241 14.1371 6.9025H14.1382C14.2353 6.90264 14.3283 6.94133 14.3968 7.01005C14.4653 7.07877 14.5037 7.17189 14.5036 7.26893C14.5034 7.36597 14.4647 7.45898 14.396 7.5275C14.3273 7.59601 14.2342 7.63443 14.1371 7.63429H14.1364ZM15.8618 7.63429C15.7647 7.63414 15.6717 7.59546 15.6032 7.52674C15.5347 7.45802 15.4963 7.3649 15.4964 7.26786C15.4966 7.17082 15.5353 7.07781 15.604 7.00929C15.6727 6.94077 15.7658 6.90236 15.8629 6.9025H15.8636C15.9606 6.90259 16.0536 6.94123 16.1222 7.00992C16.1907 7.07861 16.2292 7.17171 16.2291 7.26875C16.229 7.36579 16.1904 7.45882 16.1217 7.52737C16.053 7.59592 15.9599 7.63438 15.8629 7.63429H15.8618Z" fill="#2B8589"/>
</svg>
