<svg width="93" height="30" viewBox="0 0 93 30" fill="none" xmlns="http://www.w3.org/2000/svg">
<path d="M21.5 25C22.125 25 22.6562 24.7812 23.0938 24.3437C23.5312 23.9062 23.75 23.375 23.75 22.75C23.75 22.3125 23.625 21.9012 23.375 21.5162C23.125 21.1312 22.7917 20.855 22.375 20.6875L17.5 18.75V15.9375C18.5 17.0833 19.625 17.995 20.875 18.6725C22.125 19.35 23.4792 19.7717 24.9375 19.9375C25.2917 19.9792 25.5987 19.8804 25.8588 19.6412C26.1188 19.4021 26.2492 19.105 26.25 18.75C26.25 18.3958 26.1354 18.0937 25.9062 17.8437C25.6771 17.5937 25.3854 17.4479 25.0313 17.4062C23.8854 17.2396 22.8333 16.8854 21.875 16.3437C20.9167 15.8021 20.0417 15.0625 19.25 14.125L17.5625 12.125C17.3125 11.8333 17.0208 11.6146 16.6875 11.4688C16.3542 11.3229 16 11.25 15.625 11.25H14.375C14 11.25 13.6458 11.3229 13.3125 11.4688C12.9792 11.6146 12.6875 11.8333 12.4375 12.125L10.75 14.125C9.95833 15.0625 9.08333 15.8021 8.125 16.3437C7.16667 16.8854 6.11459 17.2396 4.96875 17.4062C4.61459 17.4479 4.32292 17.5937 4.09375 17.8437C3.86458 18.0937 3.75 18.3958 3.75 18.75C3.75 19.1042 3.88042 19.4012 4.14125 19.6412C4.40208 19.8812 4.70917 19.98 5.0625 19.9375C6.52083 19.7708 7.875 19.3492 9.125 18.6725C10.375 17.9958 11.5 17.0842 12.5 15.9375V18.75L7.625 20.6875C7.20833 20.8542 6.875 21.1304 6.625 21.5162C6.375 21.9021 6.25 22.3133 6.25 22.75C6.25 23.375 6.46875 23.9062 6.90625 24.3437C7.34375 24.7812 7.875 25 8.5 25H17.5V24.375C17.5 23.8333 17.3229 23.3854 16.9688 23.0312C16.6146 22.6771 16.1667 22.5 15.625 22.5H11.875C11.6875 22.5 11.5363 22.4429 11.4213 22.3287C11.3063 22.2146 11.2492 22.0633 11.25 21.875C11.25 21.6875 11.3071 21.5362 11.4213 21.4212C11.5354 21.3062 11.6867 21.2492 11.875 21.25H15.625C16.5 21.25 17.2396 21.5521 17.8437 22.1562C18.4479 22.7604 18.75 23.5 18.75 24.375V25H21.5Z" fill="#2B8589"/>
<path fill-rule="evenodd" clip-rule="evenodd" d="M15 5.5C14.337 5.5 13.7011 5.76339 13.2322 6.23223C12.7634 6.70107 12.5 7.33696 12.5 8C12.5 8.66304 12.7634 9.29893 13.2322 9.76777C13.7011 10.2366 14.337 10.5 15 10.5C15.663 10.5 16.2989 10.2366 16.7678 9.76777C17.2366 9.29893 17.5 8.66304 17.5 8C17.5 7.33696 17.2366 6.70107 16.7678 6.23223C16.2989 5.76339 15.663 5.5 15 5.5ZM13.6939 8.43679C13.6939 8.41311 13.7033 8.3904 13.7201 8.37365C13.7368 8.35691 13.7595 8.3475 13.7832 8.3475H16.2054C16.229 8.3475 16.2517 8.35691 16.2685 8.37365C16.2852 8.3904 16.2946 8.41311 16.2946 8.43679C16.2946 8.63393 16.1982 8.91429 15.9904 9.145C15.7796 9.37929 15.4532 9.56393 14.9939 9.56393C14.5354 9.56393 14.2089 9.37929 13.9979 9.145C13.7904 8.91429 13.6943 8.63429 13.6943 8.43679H13.6939ZM14.1364 7.63429C14.0394 7.63419 13.9464 7.59555 13.8778 7.52687C13.8439 7.49286 13.817 7.45249 13.7986 7.40808C13.7803 7.36367 13.7708 7.31609 13.7709 7.26804C13.7709 7.21999 13.7805 7.17242 13.7989 7.12804C13.8173 7.08367 13.8443 7.04336 13.8783 7.00942C13.947 6.94086 14.0401 6.90241 14.1371 6.9025H14.1382C14.2353 6.90264 14.3283 6.94133 14.3968 7.01005C14.4653 7.07877 14.5037 7.17189 14.5036 7.26893C14.5034 7.36597 14.4647 7.45898 14.396 7.5275C14.3273 7.59601 14.2342 7.63443 14.1371 7.63429H14.1364ZM15.8618 7.63429C15.7647 7.63414 15.6717 7.59546 15.6032 7.52674C15.5347 7.45802 15.4963 7.3649 15.4964 7.26786C15.4966 7.17082 15.5353 7.07781 15.604 7.00929C15.6727 6.94077 15.7658 6.90236 15.8629 6.9025H15.8636C15.9606 6.90259 16.0536 6.94123 16.1222 7.00992C16.1907 7.07861 16.2292 7.17171 16.2291 7.26875C16.229 7.36579 16.1904 7.45882 16.1217 7.52737C16.053 7.59592 15.9599 7.63438 15.8629 7.63429H15.8618Z" fill="#2B8589"/>
<path d="M43.94 22.5L37.84 15.16L43.78 8.44H47.18L40.56 15.74L40.58 14.48L47.4 22.5H43.94ZM35.44 22.5V8.44H38.16V22.5H35.44ZM52.0711 22.7C51.1911 22.7 50.3978 22.48 49.6911 22.04C48.9844 21.6 48.4311 21 48.0311 20.24C47.6311 19.48 47.4311 18.6267 47.4311 17.68C47.4311 16.72 47.6311 15.86 48.0311 15.1C48.4311 14.34 48.9844 13.74 49.6911 13.3C50.3978 12.86 51.1911 12.64 52.0711 12.64C52.7644 12.64 53.3844 12.78 53.9311 13.06C54.4778 13.34 54.9111 13.7333 55.2311 14.24C55.5644 14.7333 55.7444 15.2933 55.7711 15.92V19.4C55.7444 20.04 55.5644 20.6067 55.2311 21.1C54.9111 21.5933 54.4778 21.9867 53.9311 22.28C53.3844 22.56 52.7644 22.7 52.0711 22.7ZM52.5511 20.28C53.2844 20.28 53.8778 20.04 54.3311 19.56C54.7844 19.0667 55.0111 18.4333 55.0111 17.66C55.0111 17.1533 54.9044 16.7067 54.6911 16.32C54.4911 15.92 54.2044 15.6133 53.8311 15.4C53.4711 15.1733 53.0444 15.06 52.5511 15.06C52.0711 15.06 51.6444 15.1733 51.2711 15.4C50.9111 15.6133 50.6244 15.92 50.4111 16.32C50.2111 16.7067 50.1111 17.1533 50.1111 17.66C50.1111 18.18 50.2111 18.64 50.4111 19.04C50.6244 19.4267 50.9111 19.7333 51.2711 19.96C51.6444 20.1733 52.0711 20.28 52.5511 20.28ZM54.8711 22.5V19.9L55.2911 17.54L54.8711 15.22V12.84H57.4711V22.5H54.8711ZM59.7889 22.5V8.04H62.4089V22.5H59.7889ZM64.7303 22.5V12.84H67.3503V22.5H64.7303ZM71.0303 22.5V16.8C71.0303 16.24 70.8503 15.8067 70.4903 15.5C70.1436 15.18 69.7103 15.02 69.1903 15.02C68.8436 15.02 68.5303 15.0933 68.2503 15.24C67.9703 15.3733 67.7503 15.5733 67.5903 15.84C67.4303 16.1067 67.3503 16.4267 67.3503 16.8L66.3303 16.3C66.3303 15.5533 66.4903 14.9067 66.8103 14.36C67.1436 13.8133 67.5903 13.3933 68.1503 13.1C68.7103 12.7933 69.3436 12.64 70.0503 12.64C70.717 12.64 71.3236 12.7933 71.8703 13.1C72.417 13.3933 72.8503 13.8133 73.1703 14.36C73.4903 14.8933 73.6503 15.54 73.6503 16.3V22.5H71.0303ZM77.3303 22.5V16.8C77.3303 16.24 77.1503 15.8067 76.7903 15.5C76.4436 15.18 76.0103 15.02 75.4903 15.02C75.157 15.02 74.8436 15.0933 74.5503 15.24C74.2703 15.3733 74.0503 15.5733 73.8903 15.84C73.7303 16.1067 73.6503 16.4267 73.6503 16.8L72.1503 16.44C72.2036 15.6667 72.4103 15 72.7703 14.44C73.1303 13.8667 73.6036 13.4267 74.1903 13.12C74.777 12.8 75.4303 12.64 76.1503 12.64C76.8703 12.64 77.517 12.7933 78.0903 13.1C78.6636 13.3933 79.117 13.82 79.4503 14.38C79.7836 14.94 79.9503 15.6067 79.9503 16.38V22.5H77.3303ZM86.1141 22.7C85.2341 22.7 84.4407 22.48 83.7341 22.04C83.0274 21.6 82.4741 21 82.0741 20.24C81.6741 19.48 81.4741 18.6267 81.4741 17.68C81.4741 16.72 81.6741 15.86 82.0741 15.1C82.4741 14.34 83.0274 13.74 83.7341 13.3C84.4407 12.86 85.2341 12.64 86.1141 12.64C86.8074 12.64 87.4274 12.78 87.9741 13.06C88.5207 13.34 88.9541 13.7333 89.2741 14.24C89.6074 14.7333 89.7874 15.2933 89.8141 15.92V19.4C89.7874 20.04 89.6074 20.6067 89.2741 21.1C88.9541 21.5933 88.5207 21.9867 87.9741 22.28C87.4274 22.56 86.8074 22.7 86.1141 22.7ZM86.5941 20.28C87.3274 20.28 87.9207 20.04 88.3741 19.56C88.8274 19.0667 89.0541 18.4333 89.0541 17.66C89.0541 17.1533 88.9474 16.7067 88.7341 16.32C88.5341 15.92 88.2474 15.6133 87.8741 15.4C87.5141 15.1733 87.0874 15.06 86.5941 15.06C86.1141 15.06 85.6874 15.1733 85.3141 15.4C84.9541 15.6133 84.6674 15.92 84.4541 16.32C84.2541 16.7067 84.1541 17.1533 84.1541 17.66C84.1541 18.18 84.2541 18.64 84.4541 19.04C84.6674 19.4267 84.9541 19.7333 85.3141 19.96C85.6874 20.1733 86.1141 20.28 86.5941 20.28ZM88.9141 22.5V19.9L89.3341 17.54L88.9141 15.22V12.84H91.5141V22.5H88.9141Z" fill="#2B8589"/>
</svg>
