<svg width="150" height="150" viewBox="0 0 150 150" fill="none" xmlns="http://www.w3.org/2000/svg">
<path d="M144.062 75C144.062 83.3074 132.229 89.5762 129.002 97.3723C125.894 104.889 129.945 117.726 123.835 123.835C117.726 129.945 104.889 125.894 97.3723 129.002C89.6094 132.229 83.3008 144.062 75 144.062C66.6992 144.062 60.3906 132.229 52.6277 129.002C45.1105 125.894 32.2742 129.945 26.1648 123.835C20.0555 117.726 24.1063 104.889 20.9984 97.3723C17.7711 89.6094 5.9375 83.3008 5.9375 75C5.9375 66.6992 17.7711 60.3906 20.9984 52.6277C24.1063 45.1172 20.0555 32.2742 26.1648 26.1648C32.2742 20.0555 45.1172 24.1063 52.6277 20.9984C60.4238 17.7711 66.6992 5.9375 75 5.9375C83.3008 5.9375 89.6094 17.7711 97.3723 20.9984C104.889 24.1063 117.726 20.0555 123.835 26.1648C129.945 32.2742 125.894 45.1105 129.002 52.6277C132.229 60.4238 144.062 66.6992 144.062 75Z" fill="#6DB3B6"/>
<path d="M139.985 58.2789C137.482 55.6625 134.892 52.9664 133.916 50.5957C133.012 48.4242 132.959 44.825 132.906 41.3387C132.807 34.8574 132.7 27.5129 127.594 22.4062C122.487 17.2996 115.143 17.1934 108.661 17.0938C105.175 17.0406 101.576 16.9875 99.4043 16.0844C97.0402 15.1082 94.3375 12.5184 91.7211 10.0148C87.1391 5.61211 81.9328 0.625 75 0.625C68.0672 0.625 62.8676 5.61211 58.2789 10.0148C55.6625 12.5184 52.9664 15.1082 50.5957 16.0844C48.4375 16.9875 44.825 17.0406 41.3387 17.0938C34.8574 17.1934 27.5129 17.2996 22.4062 22.4062C17.2996 27.5129 17.2266 34.8574 17.0938 41.3387C17.0406 44.825 16.9875 48.4242 16.0844 50.5957C15.1082 52.9598 12.5184 55.6625 10.0148 58.2789C5.61211 62.8609 0.625 68.0672 0.625 75C0.625 81.9328 5.61211 87.1324 10.0148 91.7211C12.5184 94.3375 15.1082 97.0336 16.0844 99.4043C16.9875 101.576 17.0406 105.175 17.0938 108.661C17.1934 115.143 17.2996 122.487 22.4062 127.594C27.5129 132.7 34.8574 132.807 41.3387 132.906C44.825 132.959 48.4242 133.012 50.5957 133.916C52.9598 134.892 55.6625 137.482 58.2789 139.985C62.8609 144.388 68.0672 149.375 75 149.375C81.9328 149.375 87.1324 144.388 91.7211 139.985C94.3375 137.482 97.0336 134.892 99.4043 133.916C101.576 133.012 105.175 132.959 108.661 132.906C115.143 132.807 122.487 132.7 127.594 127.594C132.7 122.487 132.807 115.143 132.906 108.661C132.959 105.175 133.012 101.576 133.916 99.4043C134.892 97.0402 137.482 94.3375 139.985 91.7211C144.388 87.1391 149.375 81.9328 149.375 75C149.375 68.0672 144.388 62.8676 139.985 58.2789ZM132.315 84.3699C129.134 87.6902 125.841 91.1234 124.094 95.3402C122.421 99.391 122.348 104.02 122.281 108.502C122.215 113.15 122.142 118.018 120.077 120.077C118.011 122.135 113.177 122.215 108.502 122.281C104.02 122.348 99.391 122.421 95.3402 124.094C91.1234 125.841 87.6902 129.134 84.3699 132.315C81.0496 135.496 77.6562 138.75 75 138.75C72.3438 138.75 68.9238 135.483 65.6301 132.315C62.3363 129.148 58.8766 125.841 54.6598 124.094C50.609 122.421 45.9805 122.348 41.4981 122.281C36.8496 122.215 31.982 122.142 29.9234 120.077C27.8648 118.011 27.7852 113.177 27.7188 108.502C27.6523 104.02 27.5793 99.391 25.9059 95.3402C24.1594 91.1234 20.8656 87.6902 17.6848 84.3699C14.5039 81.0496 11.25 77.6562 11.25 75C11.25 72.3438 14.5172 68.9238 17.6848 65.6301C20.8523 62.3363 24.1594 58.8766 25.9059 54.6598C27.5793 50.609 27.6523 45.9805 27.7188 41.4981C27.7852 36.8496 27.8582 31.982 29.9234 29.9234C31.9887 27.8648 36.823 27.7852 41.4981 27.7188C45.9805 27.6523 50.609 27.5793 54.6598 25.9059C58.8766 24.1594 62.3098 20.8656 65.6301 17.6848C68.9504 14.5039 72.3438 11.25 75 11.25C77.6562 11.25 81.0762 14.5172 84.3699 17.6848C87.6637 20.8523 91.1234 24.1594 95.3402 25.9059C99.391 27.5793 104.02 27.6523 108.502 27.7188C113.15 27.7852 118.018 27.8582 120.077 29.9234C122.135 31.9887 122.215 36.823 122.281 41.4981C122.348 45.9805 122.421 50.609 124.094 54.6598C125.841 58.8766 129.134 62.3098 132.315 65.6301C135.496 68.9504 138.75 72.3438 138.75 75C138.75 77.6562 135.483 81.0762 132.315 84.3699ZM105.321 55.3039C105.815 55.7973 106.207 56.3832 106.474 57.0281C106.742 57.6731 106.879 58.3644 106.879 59.0625C106.879 59.7606 106.742 60.4519 106.474 61.0969C106.207 61.7418 105.815 62.3277 105.321 62.8211L68.1336 100.009C67.6402 100.503 67.0543 100.894 66.4094 101.162C65.7644 101.429 65.0731 101.567 64.375 101.567C63.6769 101.567 62.9856 101.429 62.3406 101.162C61.6957 100.894 61.1098 100.503 60.6164 100.009L44.6789 84.0711C43.6821 83.0743 43.122 81.7222 43.122 80.3125C43.122 78.9028 43.6821 77.5507 44.6789 76.5539C45.6757 75.5571 47.0278 74.997 48.4375 74.997C49.8472 74.997 51.1993 75.5571 52.1961 76.5539L64.375 88.7395L97.8039 55.3039C98.2973 54.81 98.8832 54.4181 99.5281 54.1508C100.173 53.8834 100.864 53.7458 101.562 53.7458C102.261 53.7458 102.952 53.8834 103.597 54.1508C104.242 54.4181 104.828 54.81 105.321 55.3039Z" fill="white"/>
</svg>
