<svg width="60" height="60" viewBox="0 0 60 60" fill="none" xmlns="http://www.w3.org/2000/svg">
<path d="M43 50C44.25 50 45.3125 49.5625 46.1875 48.6875C47.0625 47.8125 47.5 46.75 47.5 45.5C47.5 44.625 47.25 43.8025 46.75 43.0325C46.25 42.2625 45.5833 41.71 44.75 41.375L35 37.5V31.875C37 34.1667 39.25 35.99 41.75 37.345C44.25 38.7 46.9583 39.5433 49.875 39.875C50.5833 39.9583 51.1975 39.7608 51.7175 39.2825C52.2375 38.8042 52.4983 38.21 52.5 37.5C52.5 36.7917 52.2708 36.1875 51.8125 35.6875C51.3542 35.1875 50.7708 34.8958 50.0625 34.8125C47.7708 34.4792 45.6667 33.7708 43.75 32.6875C41.8333 31.6042 40.0833 30.125 38.5 28.25L35.125 24.25C34.625 23.6667 34.0417 23.2292 33.375 22.9375C32.7083 22.6458 32 22.5 31.25 22.5H28.75C28 22.5 27.2917 22.6458 26.625 22.9375C25.9583 23.2292 25.375 23.6667 24.875 24.25L21.5 28.25C19.9167 30.125 18.1667 31.6042 16.25 32.6875C14.3333 33.7708 12.2292 34.4792 9.9375 34.8125C9.22917 34.8958 8.64583 35.1875 8.1875 35.6875C7.72917 36.1875 7.5 36.7917 7.5 37.5C7.5 38.2083 7.76083 38.8025 8.2825 39.2825C8.80417 39.7625 9.41833 39.96 10.125 39.875C13.0417 39.5417 15.75 38.6983 18.25 37.345C20.75 35.9917 23 34.1683 25 31.875V37.5L15.25 41.375C14.4167 41.7083 13.75 42.2608 13.25 43.0325C12.75 43.8042 12.5 44.6267 12.5 45.5C12.5 46.75 12.9375 47.8125 13.8125 48.6875C14.6875 49.5625 15.75 50 17 50H35V48.75C35 47.6667 34.6458 46.7708 33.9375 46.0625C33.2292 45.3542 32.3333 45 31.25 45H23.75C23.375 45 23.0725 44.8858 22.8425 44.6575C22.6125 44.4292 22.4983 44.1267 22.5 43.75C22.5 43.375 22.6142 43.0725 22.8425 42.8425C23.0708 42.6125 23.3733 42.4983 23.75 42.5H31.25C33 42.5 34.4792 43.1042 35.6875 44.3125C36.8958 45.5208 37.5 47 37.5 48.75V50H43Z" fill="#F6F1F1"/>
<path fill-rule="evenodd" clip-rule="evenodd" d="M30 11C28.6739 11 27.4021 11.5268 26.4645 12.4645C25.5268 13.4021 25 14.6739 25 16C25 17.3261 25.5268 18.5979 26.4645 19.5355C27.4021 20.4732 28.6739 21 30 21C31.3261 21 32.5979 20.4732 33.5355 19.5355C34.4732 18.5979 35 17.3261 35 16C35 14.6739 34.4732 13.4021 33.5355 12.4645C32.5979 11.5268 31.3261 11 30 11ZM27.3879 16.8736C27.3879 16.8262 27.4067 16.7808 27.4402 16.7473C27.4736 16.7138 27.5191 16.695 27.5664 16.695H32.4107C32.4581 16.695 32.5035 16.7138 32.537 16.7473C32.5705 16.7808 32.5893 16.8262 32.5893 16.8736C32.5893 17.2679 32.3964 17.8286 31.9807 18.29C31.5593 18.7586 30.9064 19.1279 29.9879 19.1279C29.0707 19.1279 28.4179 18.7586 27.9957 18.29C27.5807 17.8286 27.3886 17.2686 27.3886 16.8736H27.3879ZM28.2729 15.2686C28.0788 15.2684 27.8927 15.1911 27.7556 15.0537C27.6877 14.9857 27.6339 14.905 27.5972 14.8162C27.5605 14.7273 27.5417 14.6322 27.5418 14.5361C27.5419 14.44 27.5609 14.3448 27.5978 14.2561C27.6346 14.1673 27.6886 14.0867 27.7566 14.0188C27.894 13.8817 28.0802 13.8048 28.2743 13.805H28.2764C28.4705 13.8053 28.6565 13.8827 28.7936 14.0201C28.9306 14.1575 29.0074 14.3438 29.0071 14.5379C29.0069 14.7319 28.9295 14.918 28.7921 15.055C28.6546 15.192 28.4684 15.2689 28.2743 15.2686H28.2729ZM31.7236 15.2686C31.5295 15.2683 31.3435 15.1909 31.2064 15.0535C31.0694 14.916 30.9926 14.7298 30.9929 14.5357C30.9931 14.3416 31.0705 14.1556 31.208 14.0186C31.3454 13.8815 31.5316 13.8047 31.7257 13.805H31.7271C31.9212 13.8052 32.1073 13.8825 32.2444 14.0198C32.3815 14.1572 32.4584 14.3434 32.4582 14.5375C32.458 14.7316 32.3807 14.9176 32.2434 15.0547C32.106 15.1918 31.9198 15.2688 31.7257 15.2686H31.7236Z" fill="#F6F1F1"/>
</svg>
